<svg xmlns="http://www.w3.org/2000/svg" xmlns:xlink="http://www.w3.org/1999/xlink" width="150" zoomAndPan="magnify" viewBox="0 0 112.5 112.499997" height="150" preserveAspectRatio="xMidYMid meet" version="1.0"><defs><clipPath id="869a976ca1"><path d="M 0 0 L 112.003906 0 L 112.003906 112.003906 L 0 112.003906 Z M 0 0 " clip-rule="nonzero"/></clipPath></defs><g clip-path="url(#869a976ca1)"><path fill="#38b6ff" d="M 107.105469 50.117188 C 103.171875 50.117188 99.792969 47.855469 98.28125 44.210938 C 96.773438 40.570312 97.566406 36.578125 100.347656 33.796875 C 102.253906 31.886719 102.253906 28.78125 100.347656 26.875 L 93.222656 19.75 C 91.316406 17.84375 88.210938 17.84375 86.300781 19.75 C 83.519531 22.53125 79.527344 23.324219 75.886719 21.816406 C 72.242188 20.304688 69.980469 16.925781 69.980469 12.992188 C 69.980469 10.292969 67.785156 8.097656 65.085938 8.097656 L 55.011719 8.097656 C 52.3125 8.097656 50.117188 10.292969 50.117188 12.992188 C 50.117188 16.601562 48.339844 19.160156 46.210938 20.695312 L 46.210938 4.105469 C 46.210938 1.84375 44.367188 0 42.105469 0 L 4.109375 0 C 1.84375 0 0 1.84375 0 4.105469 L 0 28.167969 C 0 30.429688 1.84375 32.273438 4.109375 32.273438 L 17.648438 32.273438 C 17.867188 33.390625 18.328125 34.988281 19.300781 36.640625 C 20.007812 37.832031 21.042969 39.15625 22.5625 40.347656 C 22.597656 42.820312 21.679688 45.246094 19.980469 47.097656 C 18.195312 49.042969 15.710938 50.117188 12.992188 50.117188 C 10.292969 50.117188 8.097656 52.3125 8.097656 55.011719 L 8.097656 65.085938 C 8.097656 67.785156 10.292969 69.980469 12.992188 69.980469 C 16.925781 69.980469 20.304688 72.242188 21.816406 75.886719 C 23.324219 79.527344 22.53125 83.519531 19.75 86.300781 C 18.828125 87.226562 18.316406 88.453125 18.316406 89.761719 C 18.316406 91.070312 18.828125 92.300781 19.75 93.222656 L 26.875 100.347656 C 27.796875 101.273438 29.027344 101.78125 30.335938 101.78125 C 31.644531 101.78125 32.871094 101.273438 33.796875 100.347656 C 36.582031 97.5625 40.574219 96.765625 44.214844 98.273438 C 47.855469 99.78125 50.117188 103.167969 50.117188 107.105469 C 50.117188 109.804688 52.3125 112.003906 55.011719 112.003906 L 65.085938 112.003906 C 67.785156 112.003906 69.980469 109.804688 69.980469 107.105469 C 69.980469 103.171875 72.242188 99.792969 75.886719 98.28125 C 79.527344 96.773438 83.519531 97.566406 86.300781 100.347656 C 87.226562 101.269531 88.453125 101.78125 89.761719 101.78125 C 91.070312 101.78125 92.300781 101.269531 93.222656 100.347656 L 100.347656 93.222656 C 101.273438 92.300781 101.78125 91.070312 101.78125 89.761719 C 101.78125 88.453125 101.273438 87.226562 100.347656 86.300781 C 97.566406 83.519531 96.773438 79.527344 98.28125 75.886719 C 99.792969 72.242188 103.171875 69.980469 107.105469 69.980469 C 109.804688 69.980469 112.003906 67.785156 112.003906 65.085938 L 112.003906 55.011719 C 112.003906 52.3125 109.804688 50.117188 107.105469 50.117188 Z M 20.628906 30.652344 C 20.609375 29.789062 19.90625 29.101562 19.042969 29.101562 L 4.109375 29.101562 C 3.59375 29.101562 3.175781 28.679688 3.175781 28.167969 L 3.175781 4.105469 C 3.175781 3.59375 3.59375 3.175781 4.109375 3.175781 L 42.105469 3.175781 C 42.617188 3.175781 43.035156 3.59375 43.035156 4.105469 L 43.035156 28.167969 C 43.035156 28.679688 42.617188 29.097656 42.105469 29.097656 L 29.253906 29.097656 C 28.511719 29.097656 27.871094 29.613281 27.707031 30.335938 C 26.789062 34.382812 27.449219 37.613281 28.328125 39.824219 C 20.933594 37.40625 20.636719 30.957031 20.628906 30.652344 Z M 108.828125 65.085938 C 108.828125 66.035156 108.054688 66.804688 107.105469 66.804688 C 101.863281 66.804688 97.359375 69.820312 95.351562 74.671875 C 93.339844 79.523438 94.394531 84.839844 98.101562 88.546875 C 98.425781 88.871094 98.605469 89.300781 98.605469 89.761719 C 98.605469 90.222656 98.425781 90.65625 98.101562 90.980469 L 90.980469 98.101562 C 90.65625 98.425781 90.222656 98.605469 89.761719 98.605469 C 89.300781 98.605469 88.871094 98.425781 88.546875 98.101562 C 84.839844 94.394531 79.523438 93.339844 74.671875 95.351562 C 69.820312 97.359375 66.804688 101.863281 66.804688 107.105469 C 66.804688 108.054688 66.035156 108.828125 65.085938 108.828125 L 55.011719 108.828125 C 54.0625 108.828125 53.292969 108.054688 53.292969 107.105469 C 53.292969 101.859375 50.277344 97.351562 45.429688 95.34375 C 40.582031 93.332031 35.265625 94.390625 31.554688 98.101562 C 31.226562 98.425781 30.796875 98.605469 30.335938 98.605469 C 29.875 98.605469 29.445312 98.425781 29.117188 98.101562 L 21.996094 90.980469 C 21.671875 90.65625 21.492188 90.222656 21.492188 89.761719 C 21.492188 89.300781 21.671875 88.871094 21.996094 88.546875 C 25.703125 84.839844 26.757812 79.523438 24.746094 74.671875 C 22.738281 69.820312 18.234375 66.804688 12.992188 66.804688 C 12.042969 66.804688 11.269531 66.035156 11.269531 65.085938 L 11.269531 55.011719 C 11.269531 54.0625 12.042969 53.292969 12.992188 53.292969 C 16.609375 53.292969 19.921875 51.855469 22.320312 49.242188 C 24.132812 47.265625 25.277344 44.789062 25.625 42.179688 C 27.175781 42.878906 29.03125 43.421875 31.25 43.699219 C 31.316406 43.707031 31.382812 43.710938 31.445312 43.710938 C 32.027344 43.710938 32.566406 43.386719 32.84375 42.867188 C 33.152344 42.289062 33.070312 41.574219 32.640625 41.078125 C 32.515625 40.933594 29.808594 37.726562 30.574219 32.273438 L 42.105469 32.273438 C 44.367188 32.273438 46.210938 30.429688 46.210938 28.167969 L 46.210938 24.394531 C 50.605469 22.246094 53.292969 17.96875 53.292969 12.992188 C 53.292969 12.042969 54.0625 11.269531 55.011719 11.269531 L 65.085938 11.269531 C 66.035156 11.269531 66.808594 12.042969 66.808594 12.992188 C 66.808594 18.234375 69.820312 22.738281 74.671875 24.746094 C 79.523438 26.757812 84.839844 25.703125 88.546875 21.996094 C 89.214844 21.324219 90.308594 21.324219 90.980469 21.996094 L 98.101562 29.117188 C 98.773438 29.789062 98.773438 30.882812 98.101562 31.554688 C 94.394531 35.261719 93.339844 40.578125 95.351562 45.425781 C 97.359375 50.277344 101.863281 53.292969 107.105469 53.292969 C 108.054688 53.292969 108.828125 54.0625 108.828125 55.011719 Z M 60.050781 29.089844 C 51.777344 29.089844 44.003906 32.308594 38.15625 38.15625 C 32.308594 44.003906 29.089844 51.777344 29.089844 60.050781 C 29.089844 77.121094 42.976562 91.007812 60.050781 91.007812 C 68.320312 91.007812 76.09375 87.789062 81.941406 81.941406 C 87.789062 76.09375 91.007812 68.320312 91.007812 60.050781 C 91.007812 42.976562 77.121094 29.089844 60.050781 29.089844 Z M 42.960938 81.941406 C 42.945312 81.832031 42.933594 81.722656 42.933594 81.609375 C 42.933594 76.105469 45.632812 70.910156 50.0625 67.714844 L 58.722656 80.902344 C 59.015625 81.351562 59.515625 81.621094 60.050781 81.621094 C 60.582031 81.621094 61.082031 81.351562 61.375 80.902344 L 70.035156 67.714844 C 74.464844 70.910156 77.164062 76.105469 77.164062 81.609375 C 77.164062 81.730469 77.152344 81.847656 77.136719 81.964844 C 72.273438 85.769531 66.320312 87.835938 60.050781 87.835938 C 53.609375 87.835938 47.675781 85.632812 42.960938 81.941406 Z M 61.351562 66.230469 C 61.351562 66.226562 61.351562 66.226562 61.351562 66.226562 Z M 61.398438 66.082031 L 58.699219 66.082031 L 58.183594 64.496094 L 61.914062 64.496094 Z M 59.113281 69.257812 L 60.984375 69.257812 L 61.703125 74.625 L 60.050781 77.140625 L 58.394531 74.625 Z M 80.1875 79.191406 C 79.433594 73 75.824219 67.378906 70.390625 64.152344 C 69.660156 63.71875 68.71875 63.9375 68.253906 64.648438 L 64.363281 70.574219 L 64.007812 67.945312 C 64.160156 67.722656 64.285156 67.476562 64.371094 67.210938 L 65.023438 65.203125 C 65.316406 64.300781 65.160156 63.308594 64.601562 62.542969 C 64.046875 61.777344 63.152344 61.324219 62.203125 61.324219 L 57.894531 61.324219 C 56.949219 61.324219 56.050781 61.777344 55.496094 62.542969 C 54.941406 63.308594 54.78125 64.300781 55.074219 65.203125 L 55.726562 67.210938 C 55.8125 67.476562 55.9375 67.722656 56.089844 67.945312 L 55.734375 70.574219 L 51.84375 64.648438 C 51.378906 63.9375 50.4375 63.722656 49.707031 64.15625 C 44.277344 67.378906 40.671875 72.988281 39.914062 79.175781 C 35.175781 74.191406 32.261719 67.453125 32.261719 60.046875 C 32.261719 52.625 35.152344 45.648438 40.402344 40.402344 C 45.648438 35.152344 52.628906 32.261719 60.050781 32.261719 C 75.371094 32.261719 87.835938 44.726562 87.835938 60.046875 C 87.835938 67.234375 85.125 74.007812 80.1875 79.191406 Z M 60.050781 39.058594 C 54.40625 39.058594 49.820312 43.644531 49.820312 49.285156 C 49.820312 54.925781 54.40625 59.515625 60.050781 59.515625 C 65.691406 59.515625 70.28125 54.925781 70.28125 49.285156 C 70.28125 43.644531 65.691406 39.058594 60.050781 39.058594 Z M 60.050781 56.34375 C 56.160156 56.34375 52.992188 53.175781 52.992188 49.285156 C 52.992188 45.394531 56.15625 42.230469 60.050781 42.230469 C 63.941406 42.230469 67.105469 45.394531 67.105469 49.285156 C 67.105469 53.175781 63.941406 56.34375 60.050781 56.34375 Z M 8.097656 8.742188 C 8.097656 7.863281 8.808594 7.15625 9.683594 7.15625 L 36.527344 7.15625 C 37.40625 7.15625 38.113281 7.863281 38.113281 8.742188 C 38.113281 9.617188 37.40625 10.328125 36.527344 10.328125 L 9.683594 10.328125 C 8.808594 10.328125 8.097656 9.617188 8.097656 8.742188 Z M 8.097656 16.136719 C 8.097656 15.261719 8.808594 14.550781 9.683594 14.550781 L 36.527344 14.550781 C 37.40625 14.550781 38.113281 15.261719 38.113281 16.136719 C 38.113281 17.011719 37.40625 17.722656 36.527344 17.722656 L 9.683594 17.722656 C 8.808594 17.722656 8.097656 17.011719 8.097656 16.136719 Z M 36.527344 25.117188 L 9.683594 25.117188 C 8.808594 25.117188 8.097656 24.410156 8.097656 23.53125 C 8.097656 22.65625 8.808594 21.945312 9.683594 21.945312 L 36.527344 21.945312 C 37.40625 21.945312 38.113281 22.65625 38.113281 23.53125 C 38.113281 24.410156 37.40625 25.117188 36.527344 25.117188 Z M 36.527344 25.117188 " fill-opacity="1" fill-rule="nonzero"/></g></svg>